<mxfile host="app.diagrams.net" modified="2023-08-27T14:43:32.116Z" agent="Mozilla/5.0 (Windows NT 10.0; Win64; x64) AppleWebKit/537.36 (KHTML, like Gecko) Chrome/115.0.0.0 Safari/537.36" etag="9cX8stkNaL1Ad94x78Ho" version="21.6.9" type="github">
  <diagram id="prtHgNgQTEPvFCAcTncT" name="Page-1">
    <mxGraphModel dx="934" dy="499" grid="1" gridSize="10" guides="1" tooltips="1" connect="1" arrows="1" fold="1" page="1" pageScale="1" pageWidth="827" pageHeight="1169" math="0" shadow="0">
      <root>
        <mxCell id="0" />
        <mxCell id="1" parent="0" />
        <mxCell id="pBPcFHpo2DyiTG8sU-xM-6" value="" style="rounded=0;whiteSpace=wrap;html=1;" vertex="1" parent="1">
          <mxGeometry x="26" y="70" width="150" height="370" as="geometry" />
        </mxCell>
        <mxCell id="pBPcFHpo2DyiTG8sU-xM-7" value="&lt;font size=&quot;1&quot; style=&quot;&quot;&gt;&lt;b style=&quot;font-size: 14px;&quot;&gt;数字化转型规划&lt;/b&gt;&lt;/font&gt;" style="rounded=0;whiteSpace=wrap;html=1;fillColor=#e1d5e7;strokeColor=#9673a6;" vertex="1" parent="1">
          <mxGeometry x="26" y="70" width="150" height="40" as="geometry" />
        </mxCell>
        <mxCell id="pBPcFHpo2DyiTG8sU-xM-9" value="业务目标解析或&lt;br&gt;业务价值实现分析" style="rounded=0;whiteSpace=wrap;html=1;" vertex="1" parent="1">
          <mxGeometry x="42" y="178" width="120" height="40" as="geometry" />
        </mxCell>
        <mxCell id="pBPcFHpo2DyiTG8sU-xM-10" value="规划企业级业务和架构&lt;span style=&quot;font-size:10.5pt;mso-bidi-font-size:11.0pt;&lt;br/&gt;font-family:等线;mso-bidi-font-family:&amp;quot;Times New Roman&amp;quot;;mso-font-kerning:1.0pt;&lt;br/&gt;mso-ansi-language:EN-US;mso-fareast-language:ZH-CN;mso-bidi-language:AR-SA&quot;&gt;&lt;/span&gt;" style="rounded=0;whiteSpace=wrap;html=1;" vertex="1" parent="1">
          <mxGeometry x="37" y="263" width="30" height="105" as="geometry" />
        </mxCell>
        <mxCell id="pBPcFHpo2DyiTG8sU-xM-11" value="明确并整合业务需求范围" style="rounded=0;whiteSpace=wrap;html=1;" vertex="1" parent="1">
          <mxGeometry x="87" y="263" width="30" height="105" as="geometry" />
        </mxCell>
        <mxCell id="pBPcFHpo2DyiTG8sU-xM-12" value="规划及制定实施路线图" style="rounded=0;whiteSpace=wrap;html=1;" vertex="1" parent="1">
          <mxGeometry x="137" y="263" width="30" height="105" as="geometry" />
        </mxCell>
        <mxCell id="pBPcFHpo2DyiTG8sU-xM-16" value="" style="edgeStyle=segmentEdgeStyle;endArrow=classic;html=1;curved=0;rounded=0;endSize=8;startSize=8;exitX=0.5;exitY=1;exitDx=0;exitDy=0;entryX=0.5;entryY=0;entryDx=0;entryDy=0;" edge="1" parent="1" source="pBPcFHpo2DyiTG8sU-xM-9" target="pBPcFHpo2DyiTG8sU-xM-10">
          <mxGeometry width="50" height="50" relative="1" as="geometry">
            <mxPoint x="97" y="233" as="sourcePoint" />
            <mxPoint x="277" y="228" as="targetPoint" />
            <Array as="points">
              <mxPoint x="102" y="238" />
              <mxPoint x="52" y="238" />
            </Array>
          </mxGeometry>
        </mxCell>
        <mxCell id="pBPcFHpo2DyiTG8sU-xM-18" value="" style="edgeStyle=segmentEdgeStyle;endArrow=classic;html=1;curved=0;rounded=0;endSize=8;startSize=8;exitX=0.5;exitY=1;exitDx=0;exitDy=0;entryX=0.5;entryY=0;entryDx=0;entryDy=0;" edge="1" parent="1" source="pBPcFHpo2DyiTG8sU-xM-9" target="pBPcFHpo2DyiTG8sU-xM-12">
          <mxGeometry width="50" height="50" relative="1" as="geometry">
            <mxPoint x="150" y="238" as="sourcePoint" />
            <mxPoint x="172.5" y="263" as="targetPoint" />
            <Array as="points">
              <mxPoint x="102" y="238" />
              <mxPoint x="152" y="238" />
            </Array>
          </mxGeometry>
        </mxCell>
        <mxCell id="pBPcFHpo2DyiTG8sU-xM-19" value="" style="edgeStyle=segmentEdgeStyle;endArrow=classic;html=1;curved=0;rounded=0;endSize=8;startSize=8;exitX=0.5;exitY=1;exitDx=0;exitDy=0;entryX=0.5;entryY=0;entryDx=0;entryDy=0;" edge="1" parent="1" source="pBPcFHpo2DyiTG8sU-xM-9" target="pBPcFHpo2DyiTG8sU-xM-11">
          <mxGeometry width="50" height="50" relative="1" as="geometry">
            <mxPoint x="247" y="330" as="sourcePoint" />
            <mxPoint x="297" y="280" as="targetPoint" />
          </mxGeometry>
        </mxCell>
        <mxCell id="pBPcFHpo2DyiTG8sU-xM-20" value="准备" style="rounded=0;whiteSpace=wrap;html=1;" vertex="1" parent="1">
          <mxGeometry x="69.5" y="126" width="65" height="30" as="geometry" />
        </mxCell>
        <mxCell id="pBPcFHpo2DyiTG8sU-xM-21" value="结束" style="rounded=0;whiteSpace=wrap;html=1;" vertex="1" parent="1">
          <mxGeometry x="69.5" y="401" width="65" height="30" as="geometry" />
        </mxCell>
        <mxCell id="pBPcFHpo2DyiTG8sU-xM-22" value="" style="edgeStyle=segmentEdgeStyle;endArrow=classic;html=1;curved=0;rounded=0;endSize=8;startSize=8;exitX=0.5;exitY=1;exitDx=0;exitDy=0;" edge="1" parent="1" source="pBPcFHpo2DyiTG8sU-xM-12" target="pBPcFHpo2DyiTG8sU-xM-21">
          <mxGeometry width="50" height="50" relative="1" as="geometry">
            <mxPoint x="157" y="373" as="sourcePoint" />
            <mxPoint x="347" y="450" as="targetPoint" />
            <Array as="points">
              <mxPoint x="152" y="380" />
              <mxPoint x="102" y="380" />
            </Array>
          </mxGeometry>
        </mxCell>
        <mxCell id="pBPcFHpo2DyiTG8sU-xM-26" value="" style="edgeStyle=segmentEdgeStyle;endArrow=classic;html=1;curved=0;rounded=0;endSize=8;startSize=8;entryX=0.5;entryY=0;entryDx=0;entryDy=0;exitX=0.5;exitY=1;exitDx=0;exitDy=0;" edge="1" parent="1" source="pBPcFHpo2DyiTG8sU-xM-10" target="pBPcFHpo2DyiTG8sU-xM-21">
          <mxGeometry width="50" height="50" relative="1" as="geometry">
            <mxPoint x="317" y="290" as="sourcePoint" />
            <mxPoint x="367" y="240" as="targetPoint" />
            <Array as="points">
              <mxPoint x="52" y="380" />
              <mxPoint x="102" y="380" />
            </Array>
          </mxGeometry>
        </mxCell>
        <mxCell id="pBPcFHpo2DyiTG8sU-xM-27" value="" style="endArrow=classic;html=1;rounded=0;exitX=0.5;exitY=1;exitDx=0;exitDy=0;entryX=0.5;entryY=0;entryDx=0;entryDy=0;" edge="1" parent="1" source="pBPcFHpo2DyiTG8sU-xM-11" target="pBPcFHpo2DyiTG8sU-xM-21">
          <mxGeometry width="50" height="50" relative="1" as="geometry">
            <mxPoint x="317" y="290" as="sourcePoint" />
            <mxPoint x="367" y="240" as="targetPoint" />
          </mxGeometry>
        </mxCell>
        <mxCell id="pBPcFHpo2DyiTG8sU-xM-28" value="" style="endArrow=classic;html=1;rounded=0;exitX=0.5;exitY=1;exitDx=0;exitDy=0;entryX=0.5;entryY=0;entryDx=0;entryDy=0;" edge="1" parent="1" source="pBPcFHpo2DyiTG8sU-xM-20" target="pBPcFHpo2DyiTG8sU-xM-9">
          <mxGeometry width="50" height="50" relative="1" as="geometry">
            <mxPoint x="317" y="290" as="sourcePoint" />
            <mxPoint x="367" y="240" as="targetPoint" />
          </mxGeometry>
        </mxCell>
        <mxCell id="pBPcFHpo2DyiTG8sU-xM-29" value="" style="rounded=0;whiteSpace=wrap;html=1;" vertex="1" parent="1">
          <mxGeometry x="176" y="70" width="140" height="370" as="geometry" />
        </mxCell>
        <mxCell id="pBPcFHpo2DyiTG8sU-xM-30" value="&lt;font style=&quot;font-size: 14px;&quot;&gt;&lt;b&gt;企业级方案设计&lt;/b&gt;&lt;/font&gt;" style="rounded=0;whiteSpace=wrap;html=1;fillColor=#e1d5e7;strokeColor=#9673a6;" vertex="1" parent="1">
          <mxGeometry x="176" y="70" width="140" height="40" as="geometry" />
        </mxCell>
        <mxCell id="pBPcFHpo2DyiTG8sU-xM-32" value="细化业务模型并与业务架构映射" style="rounded=0;whiteSpace=wrap;html=1;" vertex="1" parent="1">
          <mxGeometry x="181" y="210" width="30" height="140" as="geometry" />
        </mxCell>
        <mxCell id="pBPcFHpo2DyiTG8sU-xM-33" value="设计业务解决方案和详细业务模型" style="rounded=0;whiteSpace=wrap;html=1;" vertex="1" parent="1">
          <mxGeometry x="231" y="210" width="30" height="140" as="geometry" />
        </mxCell>
        <mxCell id="pBPcFHpo2DyiTG8sU-xM-34" value="设计业务模型和架构的对接关系&lt;span style=&quot;font-size:10.5pt;mso-bidi-font-size:11.0pt;&lt;br/&gt;font-family:等线;mso-bidi-font-family:&amp;quot;Times New Roman&amp;quot;;mso-font-kerning:1.0pt;&lt;br/&gt;mso-ansi-language:EN-US;mso-fareast-language:ZH-CN;mso-bidi-language:AR-SA&quot;&gt;&lt;/span&gt;" style="rounded=0;whiteSpace=wrap;html=1;" vertex="1" parent="1">
          <mxGeometry x="281" y="210" width="30" height="140" as="geometry" />
        </mxCell>
        <mxCell id="pBPcFHpo2DyiTG8sU-xM-35" value="" style="edgeStyle=segmentEdgeStyle;endArrow=classic;html=1;curved=0;rounded=0;endSize=8;startSize=8;exitX=0.5;exitY=1;exitDx=0;exitDy=0;entryX=0.5;entryY=0;entryDx=0;entryDy=0;" edge="1" parent="1" source="pBPcFHpo2DyiTG8sU-xM-38" target="pBPcFHpo2DyiTG8sU-xM-32">
          <mxGeometry width="50" height="50" relative="1" as="geometry">
            <mxPoint x="246" y="217.9999999999999" as="sourcePoint" />
            <mxPoint x="421" y="228" as="targetPoint" />
            <Array as="points">
              <mxPoint x="246" y="190" />
              <mxPoint x="196" y="190" />
            </Array>
          </mxGeometry>
        </mxCell>
        <mxCell id="pBPcFHpo2DyiTG8sU-xM-36" value="" style="edgeStyle=segmentEdgeStyle;endArrow=classic;html=1;curved=0;rounded=0;endSize=8;startSize=8;exitX=0.5;exitY=1;exitDx=0;exitDy=0;entryX=0.5;entryY=0;entryDx=0;entryDy=0;" edge="1" parent="1" source="pBPcFHpo2DyiTG8sU-xM-38" target="pBPcFHpo2DyiTG8sU-xM-34">
          <mxGeometry width="50" height="50" relative="1" as="geometry">
            <mxPoint x="246" y="217.9999999999999" as="sourcePoint" />
            <mxPoint x="316.5" y="263" as="targetPoint" />
            <Array as="points">
              <mxPoint x="246" y="190" />
              <mxPoint x="296" y="190" />
            </Array>
          </mxGeometry>
        </mxCell>
        <mxCell id="pBPcFHpo2DyiTG8sU-xM-37" value="" style="edgeStyle=segmentEdgeStyle;endArrow=classic;html=1;curved=0;rounded=0;endSize=8;startSize=8;entryX=0.5;entryY=0;entryDx=0;entryDy=0;" edge="1" parent="1" target="pBPcFHpo2DyiTG8sU-xM-33">
          <mxGeometry width="50" height="50" relative="1" as="geometry">
            <mxPoint x="246" y="160" as="sourcePoint" />
            <mxPoint x="441" y="280" as="targetPoint" />
          </mxGeometry>
        </mxCell>
        <mxCell id="pBPcFHpo2DyiTG8sU-xM-38" value="准备" style="rounded=0;whiteSpace=wrap;html=1;" vertex="1" parent="1">
          <mxGeometry x="213.5" y="126" width="65" height="30" as="geometry" />
        </mxCell>
        <mxCell id="pBPcFHpo2DyiTG8sU-xM-39" value="结束" style="rounded=0;whiteSpace=wrap;html=1;" vertex="1" parent="1">
          <mxGeometry x="213.5" y="401" width="65" height="30" as="geometry" />
        </mxCell>
        <mxCell id="pBPcFHpo2DyiTG8sU-xM-40" value="" style="edgeStyle=segmentEdgeStyle;endArrow=classic;html=1;curved=0;rounded=0;endSize=8;startSize=8;exitX=0.5;exitY=1;exitDx=0;exitDy=0;" edge="1" parent="1" source="pBPcFHpo2DyiTG8sU-xM-34" target="pBPcFHpo2DyiTG8sU-xM-39">
          <mxGeometry width="50" height="50" relative="1" as="geometry">
            <mxPoint x="301" y="373" as="sourcePoint" />
            <mxPoint x="491" y="450" as="targetPoint" />
            <Array as="points">
              <mxPoint x="296" y="380" />
              <mxPoint x="246" y="380" />
            </Array>
          </mxGeometry>
        </mxCell>
        <mxCell id="pBPcFHpo2DyiTG8sU-xM-41" value="" style="edgeStyle=segmentEdgeStyle;endArrow=classic;html=1;curved=0;rounded=0;endSize=8;startSize=8;entryX=0.5;entryY=0;entryDx=0;entryDy=0;exitX=0.5;exitY=1;exitDx=0;exitDy=0;" edge="1" parent="1" source="pBPcFHpo2DyiTG8sU-xM-32" target="pBPcFHpo2DyiTG8sU-xM-39">
          <mxGeometry width="50" height="50" relative="1" as="geometry">
            <mxPoint x="461" y="290" as="sourcePoint" />
            <mxPoint x="511" y="240" as="targetPoint" />
            <Array as="points">
              <mxPoint x="196" y="380" />
              <mxPoint x="246" y="380" />
            </Array>
          </mxGeometry>
        </mxCell>
        <mxCell id="pBPcFHpo2DyiTG8sU-xM-42" value="" style="endArrow=classic;html=1;rounded=0;exitX=0.5;exitY=1;exitDx=0;exitDy=0;entryX=0.5;entryY=0;entryDx=0;entryDy=0;" edge="1" parent="1" source="pBPcFHpo2DyiTG8sU-xM-33" target="pBPcFHpo2DyiTG8sU-xM-39">
          <mxGeometry width="50" height="50" relative="1" as="geometry">
            <mxPoint x="461" y="290" as="sourcePoint" />
            <mxPoint x="511" y="240" as="targetPoint" />
          </mxGeometry>
        </mxCell>
        <mxCell id="pBPcFHpo2DyiTG8sU-xM-59" value="" style="rounded=0;whiteSpace=wrap;html=1;" vertex="1" parent="1">
          <mxGeometry x="316" y="70" width="140" height="370" as="geometry" />
        </mxCell>
        <mxCell id="pBPcFHpo2DyiTG8sU-xM-60" value="&lt;font style=&quot;font-size: 14px;&quot;&gt;&lt;b&gt;分析与设计&lt;/b&gt;&lt;/font&gt;" style="rounded=0;whiteSpace=wrap;html=1;fillColor=#e1d5e7;strokeColor=#9673a6;" vertex="1" parent="1">
          <mxGeometry x="316" y="70" width="140" height="40" as="geometry" />
        </mxCell>
        <mxCell id="pBPcFHpo2DyiTG8sU-xM-61" value="接口设计" style="rounded=0;whiteSpace=wrap;html=1;" vertex="1" parent="1">
          <mxGeometry x="350" y="278" width="30" height="71" as="geometry" />
        </mxCell>
        <mxCell id="pBPcFHpo2DyiTG8sU-xM-63" value="物理DB设计&lt;span style=&quot;font-size:10.5pt;mso-bidi-font-size:11.0pt;&lt;br/&gt;font-family:等线;mso-bidi-font-family:&amp;quot;Times New Roman&amp;quot;;mso-font-kerning:1.0pt;&lt;br/&gt;mso-ansi-language:EN-US;mso-fareast-language:ZH-CN;mso-bidi-language:AR-SA&quot;&gt;&lt;/span&gt;" style="rounded=0;whiteSpace=wrap;html=1;" vertex="1" parent="1">
          <mxGeometry x="395" y="277" width="30" height="73" as="geometry" />
        </mxCell>
        <mxCell id="pBPcFHpo2DyiTG8sU-xM-64" value="" style="edgeStyle=segmentEdgeStyle;endArrow=classic;html=1;curved=0;rounded=0;endSize=8;startSize=8;exitX=0.5;exitY=1;exitDx=0;exitDy=0;entryX=0.5;entryY=0;entryDx=0;entryDy=0;" edge="1" parent="1" source="pBPcFHpo2DyiTG8sU-xM-111" target="pBPcFHpo2DyiTG8sU-xM-61">
          <mxGeometry width="50" height="50" relative="1" as="geometry">
            <mxPoint x="386" y="217.9999999999999" as="sourcePoint" />
            <mxPoint x="561" y="228" as="targetPoint" />
            <Array as="points">
              <mxPoint x="386" y="260" />
              <mxPoint x="365" y="260" />
            </Array>
          </mxGeometry>
        </mxCell>
        <mxCell id="pBPcFHpo2DyiTG8sU-xM-65" value="" style="edgeStyle=segmentEdgeStyle;endArrow=classic;html=1;curved=0;rounded=0;endSize=8;startSize=8;exitX=0.5;exitY=1;exitDx=0;exitDy=0;" edge="1" parent="1" source="pBPcFHpo2DyiTG8sU-xM-111">
          <mxGeometry width="50" height="50" relative="1" as="geometry">
            <mxPoint x="386" y="217.9999999999999" as="sourcePoint" />
            <mxPoint x="410" y="277" as="targetPoint" />
            <Array as="points">
              <mxPoint x="386" y="260" />
              <mxPoint x="410" y="260" />
            </Array>
          </mxGeometry>
        </mxCell>
        <mxCell id="pBPcFHpo2DyiTG8sU-xM-67" value="培训" style="rounded=0;whiteSpace=wrap;html=1;" vertex="1" parent="1">
          <mxGeometry x="353.5" y="126" width="65" height="24" as="geometry" />
        </mxCell>
        <mxCell id="pBPcFHpo2DyiTG8sU-xM-68" value="结束" style="rounded=0;whiteSpace=wrap;html=1;" vertex="1" parent="1">
          <mxGeometry x="353.5" y="410" width="65" height="21" as="geometry" />
        </mxCell>
        <mxCell id="pBPcFHpo2DyiTG8sU-xM-69" value="" style="edgeStyle=segmentEdgeStyle;endArrow=classic;html=1;curved=0;rounded=0;endSize=8;startSize=8;exitX=0.5;exitY=1;exitDx=0;exitDy=0;" edge="1" parent="1" source="pBPcFHpo2DyiTG8sU-xM-113" target="pBPcFHpo2DyiTG8sU-xM-68">
          <mxGeometry width="50" height="50" relative="1" as="geometry">
            <mxPoint x="441" y="373" as="sourcePoint" />
            <mxPoint x="631" y="450" as="targetPoint" />
            <Array as="points">
              <mxPoint x="386" y="380" />
            </Array>
          </mxGeometry>
        </mxCell>
        <mxCell id="pBPcFHpo2DyiTG8sU-xM-70" value="" style="edgeStyle=segmentEdgeStyle;endArrow=classic;html=1;curved=0;rounded=0;endSize=8;startSize=8;entryX=0.5;entryY=0;entryDx=0;entryDy=0;exitX=0.5;exitY=1;exitDx=0;exitDy=0;" edge="1" parent="1" source="pBPcFHpo2DyiTG8sU-xM-61" target="pBPcFHpo2DyiTG8sU-xM-113">
          <mxGeometry width="50" height="50" relative="1" as="geometry">
            <mxPoint x="601" y="290" as="sourcePoint" />
            <mxPoint x="651" y="240" as="targetPoint" />
            <Array as="points">
              <mxPoint x="365" y="360" />
              <mxPoint x="386" y="360" />
            </Array>
          </mxGeometry>
        </mxCell>
        <mxCell id="pBPcFHpo2DyiTG8sU-xM-72" value="" style="rounded=0;whiteSpace=wrap;html=1;" vertex="1" parent="1">
          <mxGeometry x="456" y="70" width="140" height="370" as="geometry" />
        </mxCell>
        <mxCell id="pBPcFHpo2DyiTG8sU-xM-73" value="&lt;font style=&quot;font-size: 14px;&quot;&gt;&lt;b&gt;开发&lt;/b&gt;&lt;/font&gt;" style="rounded=0;whiteSpace=wrap;html=1;fillColor=#e1d5e7;strokeColor=#9673a6;" vertex="1" parent="1">
          <mxGeometry x="456" y="70" width="140" height="40" as="geometry" />
        </mxCell>
        <mxCell id="pBPcFHpo2DyiTG8sU-xM-74" value="细化业务模型并与业务架构映射" style="rounded=0;whiteSpace=wrap;html=1;" vertex="1" parent="1">
          <mxGeometry x="461" y="210" width="30" height="140" as="geometry" />
        </mxCell>
        <mxCell id="pBPcFHpo2DyiTG8sU-xM-75" value="设计业务解决方案和详细业务模型" style="rounded=0;whiteSpace=wrap;html=1;" vertex="1" parent="1">
          <mxGeometry x="511" y="210" width="30" height="140" as="geometry" />
        </mxCell>
        <mxCell id="pBPcFHpo2DyiTG8sU-xM-76" value="设计业务模型和架构的对接关系&lt;span style=&quot;font-size:10.5pt;mso-bidi-font-size:11.0pt;&lt;br/&gt;font-family:等线;mso-bidi-font-family:&amp;quot;Times New Roman&amp;quot;;mso-font-kerning:1.0pt;&lt;br/&gt;mso-ansi-language:EN-US;mso-fareast-language:ZH-CN;mso-bidi-language:AR-SA&quot;&gt;&lt;/span&gt;" style="rounded=0;whiteSpace=wrap;html=1;" vertex="1" parent="1">
          <mxGeometry x="561" y="210" width="30" height="140" as="geometry" />
        </mxCell>
        <mxCell id="pBPcFHpo2DyiTG8sU-xM-77" value="" style="edgeStyle=segmentEdgeStyle;endArrow=classic;html=1;curved=0;rounded=0;endSize=8;startSize=8;exitX=0.5;exitY=1;exitDx=0;exitDy=0;entryX=0.5;entryY=0;entryDx=0;entryDy=0;" edge="1" parent="1" source="pBPcFHpo2DyiTG8sU-xM-80" target="pBPcFHpo2DyiTG8sU-xM-74">
          <mxGeometry width="50" height="50" relative="1" as="geometry">
            <mxPoint x="526" y="217.9999999999999" as="sourcePoint" />
            <mxPoint x="701" y="228" as="targetPoint" />
            <Array as="points">
              <mxPoint x="526" y="190" />
              <mxPoint x="476" y="190" />
            </Array>
          </mxGeometry>
        </mxCell>
        <mxCell id="pBPcFHpo2DyiTG8sU-xM-78" value="" style="edgeStyle=segmentEdgeStyle;endArrow=classic;html=1;curved=0;rounded=0;endSize=8;startSize=8;exitX=0.5;exitY=1;exitDx=0;exitDy=0;entryX=0.5;entryY=0;entryDx=0;entryDy=0;" edge="1" parent="1" source="pBPcFHpo2DyiTG8sU-xM-80" target="pBPcFHpo2DyiTG8sU-xM-76">
          <mxGeometry width="50" height="50" relative="1" as="geometry">
            <mxPoint x="526" y="217.9999999999999" as="sourcePoint" />
            <mxPoint x="596.5" y="263" as="targetPoint" />
            <Array as="points">
              <mxPoint x="526" y="190" />
              <mxPoint x="576" y="190" />
            </Array>
          </mxGeometry>
        </mxCell>
        <mxCell id="pBPcFHpo2DyiTG8sU-xM-79" value="" style="edgeStyle=segmentEdgeStyle;endArrow=classic;html=1;curved=0;rounded=0;endSize=8;startSize=8;entryX=0.5;entryY=0;entryDx=0;entryDy=0;" edge="1" parent="1" target="pBPcFHpo2DyiTG8sU-xM-75">
          <mxGeometry width="50" height="50" relative="1" as="geometry">
            <mxPoint x="526" y="160" as="sourcePoint" />
            <mxPoint x="721" y="280" as="targetPoint" />
          </mxGeometry>
        </mxCell>
        <mxCell id="pBPcFHpo2DyiTG8sU-xM-80" value="准备" style="rounded=0;whiteSpace=wrap;html=1;" vertex="1" parent="1">
          <mxGeometry x="493.5" y="126" width="65" height="30" as="geometry" />
        </mxCell>
        <mxCell id="pBPcFHpo2DyiTG8sU-xM-81" value="结束" style="rounded=0;whiteSpace=wrap;html=1;" vertex="1" parent="1">
          <mxGeometry x="493.5" y="401" width="65" height="30" as="geometry" />
        </mxCell>
        <mxCell id="pBPcFHpo2DyiTG8sU-xM-82" value="" style="edgeStyle=segmentEdgeStyle;endArrow=classic;html=1;curved=0;rounded=0;endSize=8;startSize=8;exitX=0.5;exitY=1;exitDx=0;exitDy=0;" edge="1" parent="1" source="pBPcFHpo2DyiTG8sU-xM-76" target="pBPcFHpo2DyiTG8sU-xM-81">
          <mxGeometry width="50" height="50" relative="1" as="geometry">
            <mxPoint x="581" y="373" as="sourcePoint" />
            <mxPoint x="771" y="450" as="targetPoint" />
            <Array as="points">
              <mxPoint x="576" y="380" />
              <mxPoint x="526" y="380" />
            </Array>
          </mxGeometry>
        </mxCell>
        <mxCell id="pBPcFHpo2DyiTG8sU-xM-83" value="" style="edgeStyle=segmentEdgeStyle;endArrow=classic;html=1;curved=0;rounded=0;endSize=8;startSize=8;entryX=0.5;entryY=0;entryDx=0;entryDy=0;exitX=0.5;exitY=1;exitDx=0;exitDy=0;" edge="1" parent="1" source="pBPcFHpo2DyiTG8sU-xM-74" target="pBPcFHpo2DyiTG8sU-xM-81">
          <mxGeometry width="50" height="50" relative="1" as="geometry">
            <mxPoint x="741" y="290" as="sourcePoint" />
            <mxPoint x="791" y="240" as="targetPoint" />
            <Array as="points">
              <mxPoint x="476" y="380" />
              <mxPoint x="526" y="380" />
            </Array>
          </mxGeometry>
        </mxCell>
        <mxCell id="pBPcFHpo2DyiTG8sU-xM-84" value="" style="endArrow=classic;html=1;rounded=0;exitX=0.5;exitY=1;exitDx=0;exitDy=0;entryX=0.5;entryY=0;entryDx=0;entryDy=0;" edge="1" parent="1" source="pBPcFHpo2DyiTG8sU-xM-75" target="pBPcFHpo2DyiTG8sU-xM-81">
          <mxGeometry width="50" height="50" relative="1" as="geometry">
            <mxPoint x="741" y="290" as="sourcePoint" />
            <mxPoint x="791" y="240" as="targetPoint" />
          </mxGeometry>
        </mxCell>
        <mxCell id="pBPcFHpo2DyiTG8sU-xM-85" value="" style="rounded=0;whiteSpace=wrap;html=1;" vertex="1" parent="1">
          <mxGeometry x="596" y="70" width="140" height="370" as="geometry" />
        </mxCell>
        <mxCell id="pBPcFHpo2DyiTG8sU-xM-86" value="&lt;font style=&quot;font-size: 14px;&quot;&gt;&lt;b&gt;测试&lt;/b&gt;&lt;/font&gt;" style="rounded=0;whiteSpace=wrap;html=1;fillColor=#e1d5e7;strokeColor=#9673a6;" vertex="1" parent="1">
          <mxGeometry x="596" y="70" width="140" height="40" as="geometry" />
        </mxCell>
        <mxCell id="pBPcFHpo2DyiTG8sU-xM-87" value="细化业务模型并与业务架构映射" style="rounded=0;whiteSpace=wrap;html=1;" vertex="1" parent="1">
          <mxGeometry x="601" y="210" width="30" height="140" as="geometry" />
        </mxCell>
        <mxCell id="pBPcFHpo2DyiTG8sU-xM-88" value="设计业务解决方案和详细业务模型" style="rounded=0;whiteSpace=wrap;html=1;" vertex="1" parent="1">
          <mxGeometry x="651" y="210" width="30" height="140" as="geometry" />
        </mxCell>
        <mxCell id="pBPcFHpo2DyiTG8sU-xM-89" value="设计业务模型和架构的对接关系&lt;span style=&quot;font-size:10.5pt;mso-bidi-font-size:11.0pt;&lt;br/&gt;font-family:等线;mso-bidi-font-family:&amp;quot;Times New Roman&amp;quot;;mso-font-kerning:1.0pt;&lt;br/&gt;mso-ansi-language:EN-US;mso-fareast-language:ZH-CN;mso-bidi-language:AR-SA&quot;&gt;&lt;/span&gt;" style="rounded=0;whiteSpace=wrap;html=1;" vertex="1" parent="1">
          <mxGeometry x="701" y="210" width="30" height="140" as="geometry" />
        </mxCell>
        <mxCell id="pBPcFHpo2DyiTG8sU-xM-90" value="" style="edgeStyle=segmentEdgeStyle;endArrow=classic;html=1;curved=0;rounded=0;endSize=8;startSize=8;exitX=0.5;exitY=1;exitDx=0;exitDy=0;entryX=0.5;entryY=0;entryDx=0;entryDy=0;" edge="1" parent="1" source="pBPcFHpo2DyiTG8sU-xM-93" target="pBPcFHpo2DyiTG8sU-xM-87">
          <mxGeometry width="50" height="50" relative="1" as="geometry">
            <mxPoint x="666" y="217.9999999999999" as="sourcePoint" />
            <mxPoint x="841" y="228" as="targetPoint" />
            <Array as="points">
              <mxPoint x="666" y="190" />
              <mxPoint x="616" y="190" />
            </Array>
          </mxGeometry>
        </mxCell>
        <mxCell id="pBPcFHpo2DyiTG8sU-xM-91" value="" style="edgeStyle=segmentEdgeStyle;endArrow=classic;html=1;curved=0;rounded=0;endSize=8;startSize=8;exitX=0.5;exitY=1;exitDx=0;exitDy=0;entryX=0.5;entryY=0;entryDx=0;entryDy=0;" edge="1" parent="1" source="pBPcFHpo2DyiTG8sU-xM-93" target="pBPcFHpo2DyiTG8sU-xM-89">
          <mxGeometry width="50" height="50" relative="1" as="geometry">
            <mxPoint x="666" y="217.9999999999999" as="sourcePoint" />
            <mxPoint x="736.5" y="263" as="targetPoint" />
            <Array as="points">
              <mxPoint x="666" y="190" />
              <mxPoint x="716" y="190" />
            </Array>
          </mxGeometry>
        </mxCell>
        <mxCell id="pBPcFHpo2DyiTG8sU-xM-92" value="" style="edgeStyle=segmentEdgeStyle;endArrow=classic;html=1;curved=0;rounded=0;endSize=8;startSize=8;entryX=0.5;entryY=0;entryDx=0;entryDy=0;" edge="1" parent="1" target="pBPcFHpo2DyiTG8sU-xM-88">
          <mxGeometry width="50" height="50" relative="1" as="geometry">
            <mxPoint x="666" y="160" as="sourcePoint" />
            <mxPoint x="861" y="280" as="targetPoint" />
          </mxGeometry>
        </mxCell>
        <mxCell id="pBPcFHpo2DyiTG8sU-xM-93" value="准备" style="rounded=0;whiteSpace=wrap;html=1;" vertex="1" parent="1">
          <mxGeometry x="633.5" y="126" width="65" height="30" as="geometry" />
        </mxCell>
        <mxCell id="pBPcFHpo2DyiTG8sU-xM-94" value="结束" style="rounded=0;whiteSpace=wrap;html=1;" vertex="1" parent="1">
          <mxGeometry x="633.5" y="401" width="65" height="30" as="geometry" />
        </mxCell>
        <mxCell id="pBPcFHpo2DyiTG8sU-xM-95" value="" style="edgeStyle=segmentEdgeStyle;endArrow=classic;html=1;curved=0;rounded=0;endSize=8;startSize=8;exitX=0.5;exitY=1;exitDx=0;exitDy=0;" edge="1" parent="1" source="pBPcFHpo2DyiTG8sU-xM-89" target="pBPcFHpo2DyiTG8sU-xM-94">
          <mxGeometry width="50" height="50" relative="1" as="geometry">
            <mxPoint x="721" y="373" as="sourcePoint" />
            <mxPoint x="911" y="450" as="targetPoint" />
            <Array as="points">
              <mxPoint x="716" y="380" />
              <mxPoint x="666" y="380" />
            </Array>
          </mxGeometry>
        </mxCell>
        <mxCell id="pBPcFHpo2DyiTG8sU-xM-96" value="" style="edgeStyle=segmentEdgeStyle;endArrow=classic;html=1;curved=0;rounded=0;endSize=8;startSize=8;entryX=0.5;entryY=0;entryDx=0;entryDy=0;exitX=0.5;exitY=1;exitDx=0;exitDy=0;" edge="1" parent="1" source="pBPcFHpo2DyiTG8sU-xM-87" target="pBPcFHpo2DyiTG8sU-xM-94">
          <mxGeometry width="50" height="50" relative="1" as="geometry">
            <mxPoint x="881" y="290" as="sourcePoint" />
            <mxPoint x="931" y="240" as="targetPoint" />
            <Array as="points">
              <mxPoint x="616" y="380" />
              <mxPoint x="666" y="380" />
            </Array>
          </mxGeometry>
        </mxCell>
        <mxCell id="pBPcFHpo2DyiTG8sU-xM-97" value="" style="endArrow=classic;html=1;rounded=0;exitX=0.5;exitY=1;exitDx=0;exitDy=0;entryX=0.5;entryY=0;entryDx=0;entryDy=0;" edge="1" parent="1" source="pBPcFHpo2DyiTG8sU-xM-88" target="pBPcFHpo2DyiTG8sU-xM-94">
          <mxGeometry width="50" height="50" relative="1" as="geometry">
            <mxPoint x="881" y="290" as="sourcePoint" />
            <mxPoint x="931" y="240" as="targetPoint" />
          </mxGeometry>
        </mxCell>
        <mxCell id="pBPcFHpo2DyiTG8sU-xM-98" value="" style="rounded=0;whiteSpace=wrap;html=1;" vertex="1" parent="1">
          <mxGeometry x="736" y="70" width="140" height="370" as="geometry" />
        </mxCell>
        <mxCell id="pBPcFHpo2DyiTG8sU-xM-99" value="&lt;font style=&quot;font-size: 14px;&quot;&gt;&lt;b&gt;上线&lt;/b&gt;&lt;/font&gt;" style="rounded=0;whiteSpace=wrap;html=1;fillColor=#e1d5e7;strokeColor=#9673a6;" vertex="1" parent="1">
          <mxGeometry x="736" y="70" width="140" height="40" as="geometry" />
        </mxCell>
        <mxCell id="pBPcFHpo2DyiTG8sU-xM-100" value="细化业务模型并与业务架构映射" style="rounded=0;whiteSpace=wrap;html=1;" vertex="1" parent="1">
          <mxGeometry x="741" y="210" width="30" height="140" as="geometry" />
        </mxCell>
        <mxCell id="pBPcFHpo2DyiTG8sU-xM-101" value="设计业务解决方案和详细业务模型" style="rounded=0;whiteSpace=wrap;html=1;" vertex="1" parent="1">
          <mxGeometry x="791" y="210" width="30" height="140" as="geometry" />
        </mxCell>
        <mxCell id="pBPcFHpo2DyiTG8sU-xM-102" value="设计业务模型和架构的对接关系&lt;span style=&quot;font-size:10.5pt;mso-bidi-font-size:11.0pt;&lt;br/&gt;font-family:等线;mso-bidi-font-family:&amp;quot;Times New Roman&amp;quot;;mso-font-kerning:1.0pt;&lt;br/&gt;mso-ansi-language:EN-US;mso-fareast-language:ZH-CN;mso-bidi-language:AR-SA&quot;&gt;&lt;/span&gt;" style="rounded=0;whiteSpace=wrap;html=1;" vertex="1" parent="1">
          <mxGeometry x="841" y="210" width="30" height="140" as="geometry" />
        </mxCell>
        <mxCell id="pBPcFHpo2DyiTG8sU-xM-103" value="" style="edgeStyle=segmentEdgeStyle;endArrow=classic;html=1;curved=0;rounded=0;endSize=8;startSize=8;exitX=0.5;exitY=1;exitDx=0;exitDy=0;entryX=0.5;entryY=0;entryDx=0;entryDy=0;" edge="1" parent="1" source="pBPcFHpo2DyiTG8sU-xM-106" target="pBPcFHpo2DyiTG8sU-xM-100">
          <mxGeometry width="50" height="50" relative="1" as="geometry">
            <mxPoint x="806" y="217.9999999999999" as="sourcePoint" />
            <mxPoint x="981" y="228" as="targetPoint" />
            <Array as="points">
              <mxPoint x="806" y="190" />
              <mxPoint x="756" y="190" />
            </Array>
          </mxGeometry>
        </mxCell>
        <mxCell id="pBPcFHpo2DyiTG8sU-xM-104" value="" style="edgeStyle=segmentEdgeStyle;endArrow=classic;html=1;curved=0;rounded=0;endSize=8;startSize=8;exitX=0.5;exitY=1;exitDx=0;exitDy=0;entryX=0.5;entryY=0;entryDx=0;entryDy=0;" edge="1" parent="1" source="pBPcFHpo2DyiTG8sU-xM-106" target="pBPcFHpo2DyiTG8sU-xM-102">
          <mxGeometry width="50" height="50" relative="1" as="geometry">
            <mxPoint x="806" y="217.9999999999999" as="sourcePoint" />
            <mxPoint x="876.5" y="263" as="targetPoint" />
            <Array as="points">
              <mxPoint x="806" y="190" />
              <mxPoint x="856" y="190" />
            </Array>
          </mxGeometry>
        </mxCell>
        <mxCell id="pBPcFHpo2DyiTG8sU-xM-105" value="" style="edgeStyle=segmentEdgeStyle;endArrow=classic;html=1;curved=0;rounded=0;endSize=8;startSize=8;entryX=0.5;entryY=0;entryDx=0;entryDy=0;" edge="1" parent="1" target="pBPcFHpo2DyiTG8sU-xM-101">
          <mxGeometry width="50" height="50" relative="1" as="geometry">
            <mxPoint x="806" y="160" as="sourcePoint" />
            <mxPoint x="1001" y="280" as="targetPoint" />
          </mxGeometry>
        </mxCell>
        <mxCell id="pBPcFHpo2DyiTG8sU-xM-106" value="准备" style="rounded=0;whiteSpace=wrap;html=1;" vertex="1" parent="1">
          <mxGeometry x="773.5" y="126" width="65" height="30" as="geometry" />
        </mxCell>
        <mxCell id="pBPcFHpo2DyiTG8sU-xM-107" value="结束" style="rounded=0;whiteSpace=wrap;html=1;" vertex="1" parent="1">
          <mxGeometry x="773.5" y="401" width="65" height="30" as="geometry" />
        </mxCell>
        <mxCell id="pBPcFHpo2DyiTG8sU-xM-108" value="" style="edgeStyle=segmentEdgeStyle;endArrow=classic;html=1;curved=0;rounded=0;endSize=8;startSize=8;exitX=0.5;exitY=1;exitDx=0;exitDy=0;" edge="1" parent="1" source="pBPcFHpo2DyiTG8sU-xM-102" target="pBPcFHpo2DyiTG8sU-xM-107">
          <mxGeometry width="50" height="50" relative="1" as="geometry">
            <mxPoint x="861" y="373" as="sourcePoint" />
            <mxPoint x="1051" y="450" as="targetPoint" />
            <Array as="points">
              <mxPoint x="856" y="380" />
              <mxPoint x="806" y="380" />
            </Array>
          </mxGeometry>
        </mxCell>
        <mxCell id="pBPcFHpo2DyiTG8sU-xM-109" value="" style="edgeStyle=segmentEdgeStyle;endArrow=classic;html=1;curved=0;rounded=0;endSize=8;startSize=8;entryX=0.5;entryY=0;entryDx=0;entryDy=0;exitX=0.5;exitY=1;exitDx=0;exitDy=0;" edge="1" parent="1" source="pBPcFHpo2DyiTG8sU-xM-100" target="pBPcFHpo2DyiTG8sU-xM-107">
          <mxGeometry width="50" height="50" relative="1" as="geometry">
            <mxPoint x="1021" y="290" as="sourcePoint" />
            <mxPoint x="1071" y="240" as="targetPoint" />
            <Array as="points">
              <mxPoint x="756" y="380" />
              <mxPoint x="806" y="380" />
            </Array>
          </mxGeometry>
        </mxCell>
        <mxCell id="pBPcFHpo2DyiTG8sU-xM-110" value="" style="endArrow=classic;html=1;rounded=0;exitX=0.5;exitY=1;exitDx=0;exitDy=0;entryX=0.5;entryY=0;entryDx=0;entryDy=0;" edge="1" parent="1" source="pBPcFHpo2DyiTG8sU-xM-101" target="pBPcFHpo2DyiTG8sU-xM-107">
          <mxGeometry width="50" height="50" relative="1" as="geometry">
            <mxPoint x="1021" y="290" as="sourcePoint" />
            <mxPoint x="1071" y="240" as="targetPoint" />
          </mxGeometry>
        </mxCell>
        <mxCell id="pBPcFHpo2DyiTG8sU-xM-111" value="交易设计" style="rounded=0;whiteSpace=wrap;html=1;" vertex="1" parent="1">
          <mxGeometry x="321" y="233" width="129" height="18" as="geometry" />
        </mxCell>
        <mxCell id="pBPcFHpo2DyiTG8sU-xM-114" value="" style="edgeStyle=segmentEdgeStyle;endArrow=classic;html=1;curved=0;rounded=0;endSize=8;startSize=8;exitX=0.5;exitY=1;exitDx=0;exitDy=0;entryX=0.5;entryY=0;entryDx=0;entryDy=0;" edge="1" parent="1" source="pBPcFHpo2DyiTG8sU-xM-63" target="pBPcFHpo2DyiTG8sU-xM-113">
          <mxGeometry width="50" height="50" relative="1" as="geometry">
            <mxPoint x="436" y="377" as="sourcePoint" />
            <mxPoint x="386" y="401" as="targetPoint" />
            <Array as="points">
              <mxPoint x="414" y="360" />
              <mxPoint x="386" y="360" />
            </Array>
          </mxGeometry>
        </mxCell>
        <mxCell id="pBPcFHpo2DyiTG8sU-xM-113" value="规则设计" style="rounded=0;whiteSpace=wrap;html=1;" vertex="1" parent="1">
          <mxGeometry x="321" y="380" width="129" height="17" as="geometry" />
        </mxCell>
        <mxCell id="pBPcFHpo2DyiTG8sU-xM-119" value="应用数据模型" style="rounded=0;whiteSpace=wrap;html=1;" vertex="1" parent="1">
          <mxGeometry x="321" y="200" width="129" height="20" as="geometry" />
        </mxCell>
        <mxCell id="pBPcFHpo2DyiTG8sU-xM-120" value="开发团队职责定义" style="rounded=0;whiteSpace=wrap;html=1;" vertex="1" parent="1">
          <mxGeometry x="321.5" y="165" width="129" height="20" as="geometry" />
        </mxCell>
        <mxCell id="pBPcFHpo2DyiTG8sU-xM-121" value="" style="endArrow=classic;html=1;rounded=0;exitX=0.5;exitY=1;exitDx=0;exitDy=0;entryX=0.5;entryY=0;entryDx=0;entryDy=0;" edge="1" parent="1" source="pBPcFHpo2DyiTG8sU-xM-67" target="pBPcFHpo2DyiTG8sU-xM-120">
          <mxGeometry width="50" height="50" relative="1" as="geometry">
            <mxPoint x="450" y="320" as="sourcePoint" />
            <mxPoint x="500" y="270" as="targetPoint" />
          </mxGeometry>
        </mxCell>
        <mxCell id="pBPcFHpo2DyiTG8sU-xM-122" value="" style="endArrow=classic;html=1;rounded=0;exitX=0.5;exitY=1;exitDx=0;exitDy=0;" edge="1" parent="1" source="pBPcFHpo2DyiTG8sU-xM-120" target="pBPcFHpo2DyiTG8sU-xM-119">
          <mxGeometry width="50" height="50" relative="1" as="geometry">
            <mxPoint x="396" y="160" as="sourcePoint" />
            <mxPoint x="396" y="180" as="targetPoint" />
          </mxGeometry>
        </mxCell>
        <mxCell id="pBPcFHpo2DyiTG8sU-xM-123" value="" style="endArrow=classic;html=1;rounded=0;entryX=0.5;entryY=0;entryDx=0;entryDy=0;exitX=0.5;exitY=1;exitDx=0;exitDy=0;" edge="1" parent="1" source="pBPcFHpo2DyiTG8sU-xM-119" target="pBPcFHpo2DyiTG8sU-xM-111">
          <mxGeometry width="50" height="50" relative="1" as="geometry">
            <mxPoint x="380" y="220" as="sourcePoint" />
            <mxPoint x="396" y="210" as="targetPoint" />
          </mxGeometry>
        </mxCell>
      </root>
    </mxGraphModel>
  </diagram>
</mxfile>
